<svg width="48" height="65" viewBox="0 0 48 65" fill="none" xmlns="http://www.w3.org/2000/svg">
<path d="M18.4741 0.729172C15.7756 1.45222 14.4328 4.43478 15.6594 6.97835C16.0597 7.77886 17.0409 8.73431 17.9318 9.14748L18.6678 9.49609H24.0906H29.5135L30.2494 9.14748C31.5922 8.51482 32.5348 7.28822 32.8188 5.76466C33.1545 3.90541 31.9796 1.80083 30.1203 0.935756L29.3843 0.587145L24.2843 0.561322C20.1139 0.535499 19.0551 0.561322 18.4741 0.729172Z" fill="black"/>
<path d="M7.17617 4.98999C6.68553 5.09328 5.71717 5.44189 5.04577 5.77759C4.01285 6.28114 3.65132 6.53937 2.7217 7.48191C1.45637 8.76015 0.81079 9.89637 0.397622 11.562C0.139391 12.582 0.139391 12.9693 0.165214 34.9964L0.203949 57.3978L0.578383 58.4824C1.53384 61.2197 3.61259 63.2209 6.53059 64.2022L7.4344 64.4992L23.1865 64.5379C40.9656 64.5767 40.0618 64.6154 42.1664 63.5954C44.7229 62.3559 46.453 60.2384 47.1502 57.4882C47.3956 56.507 47.3956 56.0034 47.3697 34.2217L47.331 11.9493L46.9566 10.8647C46.169 8.60521 44.5679 6.78469 42.4634 5.76468C41.2109 5.15784 39.7648 4.7834 38.6286 4.7834C37.9185 4.7834 37.841 4.87379 37.841 5.72595C37.841 7.17204 36.7823 9.71561 35.6332 11.0455C34.2904 12.6078 32.6248 13.6665 30.6493 14.2346C29.668 14.5187 29.4873 14.5316 23.7675 14.5316C18.0218 14.5316 17.8669 14.5187 16.8727 14.2346C14.0451 13.4212 11.7727 11.5103 10.5848 8.97965C10.1071 7.93382 9.69392 6.52646 9.69392 5.91962C9.69392 5.73886 9.65518 5.40316 9.61645 5.18366C9.53898 4.79632 9.51316 4.7834 8.80302 4.79632C8.40276 4.79632 7.67972 4.8867 7.17617 4.98999ZM27.189 25.1061C33.3091 26.7459 37.7248 31.9751 38.3575 38.3663C39.0418 45.1965 34.6906 51.8201 28.0928 53.9634C26.466 54.4928 25.73 54.6348 24.0128 54.7122C19.8036 54.9188 15.8011 53.3695 12.8056 50.3869C12.1858 49.7671 11.4111 48.8892 11.0884 48.4243C9.9005 46.7458 8.93214 44.4347 8.51897 42.3559C8.29947 41.2326 8.29947 38.263 8.51897 37.0622C9.35822 32.4011 12.3666 28.3727 16.6016 26.2423C19.0289 25.0287 20.7849 24.6542 23.7675 24.7188C25.5751 24.7575 26.0915 24.8221 27.189 25.1061Z" fill="black"/>
<path d="M29.3841 34.7249C29.1 34.854 27.06 36.0677 24.8392 37.4234C22.6313 38.792 20.785 39.9024 20.7592 39.9024C20.7204 39.9024 20.204 39.1277 19.5971 38.1852C18.6933 36.8036 18.3835 36.4034 17.9315 36.1581C16.3305 35.2543 14.1356 36.3646 13.9806 38.1464C13.9548 38.5338 13.9935 39.0373 14.071 39.2697C14.2905 39.9153 17.0536 44.2794 17.5571 44.783C18.5384 45.7642 20.3847 46.1645 21.4177 45.6093C22.386 45.1057 31.6307 39.2181 31.876 38.9599C32.2633 38.5596 32.5474 37.7978 32.5474 37.2297C32.5345 36.4809 31.8889 35.1122 31.3854 34.7636C30.856 34.415 30.0942 34.3892 29.3841 34.7249Z" fill="black"/>
</svg>
